<?xml version="1.0" standalone="no"?><!DOCTYPE svg PUBLIC "-//W3C//DTD SVG 1.1//EN" "http://www.w3.org/Graphics/SVG/1.1/DTD/svg11.dtd"><svg t="1773387412281" class="icon" viewBox="0 0 1024 1024" version="1.1" xmlns="http://www.w3.org/2000/svg" p-id="1672" xmlns:xlink="http://www.w3.org/1999/xlink" width="200" height="200"><path d="M387.1 202.7c13.1 0 24.3 4.5 33.6 13.6 9.3 9 14 20.1 14 33.2V438c0 13.1-4.7 24.3-14 33.6s-20.5 13.9-33.6 14H198.6c-13.1 0-24.1-4.6-33.2-14-9-9.3-13.6-20.5-13.6-33.6V249.5c0-13.1 4.5-24.1 13.6-33.2 9-9.1 20.1-13.6 33.2-13.6h188.5z m0 377.1c13.1 0 24.3 4.5 33.6 13.6 9.3 9 14 20.1 14 33.2v189.3c0 13.1-4.7 24.1-14 33.2-9.3 9-20.5 13.6-33.6 13.6H198.6c-13.1 0-24.1-4.5-33.2-13.6-9-9-13.6-20.1-13.6-33.2V626.5c0-13.1 4.5-24.1 13.6-33.2 9-9.1 20.1-13.6 33.2-13.6h188.5z m377.8 0c13.1 0 24.1 4.5 33.2 13.6 9 9 13.6 20.1 13.6 33.2v189.3c0 13.1-4.5 24.1-13.6 33.2-9 9-20.1 13.6-33.2 13.6H576.4c-13.1 0-24.3-4.5-33.6-13.6-9.3-9-14-20.1-14-33.2V626.5c0-13.1 4.6-24.1 14-33.2 9.3-9.1 20.5-13.6 33.6-13.6h188.5z m78.2-265.6c10.1 10.1 15.1 21.9 15.1 35.4 0 13.6-5 25.1-15.1 34.7L702.8 524.6c-10.1 10.1-21.7 15.1-35.1 15.1s-25-5-35.1-15.1L492.5 384.3c-9.6-9.6-14.3-21.1-14.3-34.7 0-13.6 4.8-25.4 14.3-35.4l140.3-140.3c10.1-9.5 21.7-14.3 35.1-14.3s25 4.8 35.1 14.3l140.1 140.3z m26.6-28.5" fill="#ffffff" p-id="1673"></path></svg>